P3
3 3
255
0
0
0
200
10
150
255
20
255
10
90
20
210
100
170
255
110
255
20
180
40
220
190
190
255
200
255
